HIERARCHY
ROOT Bip001_Pelvis
{
  OFFSET 7.937 94.8971 -8.5489
  CHANNELS 6 Xposition Yposition Zposition Zrotation Xrotation Yrotation
  JOINT Bip001_Spine
  {
    OFFSET 1.44608e-005 10.4157 -0.0118244
    CHANNELS 3 Zrotation Xrotation Yrotation
    JOINT Bip001_L_Thigh
    {
      OFFSET 11.2582 -10.4157 0.0118432
      CHANNELS 3 Zrotation Xrotation Yrotation
      JOINT Bip001_L_Calf
      {
        OFFSET -0.720717 -44.8687 0.366937
        CHANNELS 3 Zrotation Xrotation Yrotation
        JOINT Bip001_L_Foot
        {
          OFFSET -0.664439 -41.3745 -3.62995
          CHANNELS 3 Zrotation Xrotation Yrotation
          JOINT Bip001_L_Toe0
          {
            OFFSET 0.0541047 -10.4146 13.4033
            CHANNELS 3 Zrotation Xrotation Yrotation
            End Site
            {
              OFFSET -1.04503e-005 0 7.70137
            }
          }
        }
      }
    }
    JOINT Bip001_R_Thigh
    {
      OFFSET -11.2582 -10.4156 0.0118122
      CHANNELS 3 Zrotation Xrotation Yrotation
      JOINT Bip001_R_Calf
      {
        OFFSET 0.72059 -44.8687 0.36676
        CHANNELS 3 Zrotation Xrotation Yrotation
        JOINT Bip001_R_Foot
        {
          OFFSET 0.664321 -41.3745 -3.62979
          CHANNELS 3 Zrotation Xrotation Yrotation
          JOINT Bip001_R_Toe0
          {
            OFFSET -0.05417 -10.4146 13.4033
            CHANNELS 3 Zrotation Xrotation Yrotation
            End Site
            {
              OFFSET -1.04873e-005 0 7.70137
            }
          }
        }
      }
    }
    JOINT Bip001_Spine1
    {
      OFFSET 1.90638e-005 14.8539 1.10727
      CHANNELS 3 Zrotation Xrotation Yrotation
      JOINT Bip001_Spine2
      {
        OFFSET 2.28934e-005 14.7848 -1.7233
        CHANNELS 3 Zrotation Xrotation Yrotation
        JOINT Bip001_Neck
        {
          OFFSET 2.24514e-005 15.6905 -0.498826
          CHANNELS 3 Zrotation Xrotation Yrotation
          JOINT Bip001_L_Clavicle
          {
            OFFSET 6.17691 -0.000591152 0.00852867
            CHANNELS 3 Zrotation Xrotation Yrotation
            JOINT Bip001_L_UpperArm
            {
              OFFSET 11.773 -0.0611878 0.00197697
              CHANNELS 3 Zrotation Xrotation Yrotation
              JOINT Bip001_L_Forearm
              {
                OFFSET 26.4515 0.0817568 -2.19579
                CHANNELS 3 Zrotation Xrotation Yrotation
                JOINT Bip001_L_Hand
                {
                  OFFSET 32.8677 0.156744 1.67112
                  CHANNELS 3 Zrotation Xrotation Yrotation
                  JOINT Bip001_L_Finger0
                  {
                    OFFSET 6.16268 -2.25226 6.01674
                    CHANNELS 3 Zrotation Xrotation Yrotation
                    End Site
                    {
                      OFFSET 4.30499 -1.46662 0.618148
                    }
                  }
                  JOINT Bip001_L_Finger1
                  {
                    OFFSET 11.2957 -0.718374 -0.201963
                    CHANNELS 3 Zrotation Xrotation Yrotation
                    End Site
                    {
                      OFFSET 6.31952 -0.405163 -0.0802303
                    }
                  }
                }
              }
            }
          }
          JOINT Bip001_R_Clavicle
          {
            OFFSET -6.17691 -0.000574027 0.00851165
            CHANNELS 3 Zrotation Xrotation Yrotation
            JOINT Bip001_R_UpperArm
            {
              OFFSET -11.773 -0.0611516 0.00194365
              CHANNELS 3 Zrotation Xrotation Yrotation
              JOINT Bip001_R_Forearm
              {
                OFFSET -26.4514 0.0822334 -2.19736
                CHANNELS 3 Zrotation Xrotation Yrotation
                JOINT Bip001_R_Hand
                {
                  OFFSET -32.8677 0.156817 1.67144
                  CHANNELS 3 Zrotation Xrotation Yrotation
                  JOINT Bip001_R_Finger0
                  {
                    OFFSET -6.1627 -2.25224 6.0167
                    CHANNELS 3 Zrotation Xrotation Yrotation
                    End Site
                    {
                      OFFSET -4.30499 -1.46662 0.618134
                    }
                  }
                  JOINT Bip001_R_Finger1
                  {
                    OFFSET -11.2958 -0.718344 -0.201994
                    CHANNELS 3 Zrotation Xrotation Yrotation
                    End Site
                    {
                      OFFSET -6.31952 -0.405146 -0.0802475
                    }
                  }
                }
              }
            }
          }
          JOINT Bip001_Head
          {
            OFFSET 1.11782e-005 11.4912 2.09908
            CHANNELS 3 Zrotation Xrotation Yrotation
            End Site
            {
              OFFSET 2.95144e-005 21.2823 -2.83069e-005
            }
          }
        }
      }
    }
  }
}
MOTION
Frames:	10
Frame Time:	0.04
6.88437 95.5694 -8.22682 0.00726739 -3.33582 4.45887 -0.0258641 1.06825 0.0413625 6.11086 -6.04087 7.68825 -1.09029 14.3919 -2.4618 -3.24329 -5.24983 -0.862691 0.563475 -9.87619 0.1822 -7.20572 -2.61099 -1.4992 0.245257 14.229 1.43433 0.73652 -8.3306 -10.7465 -0.980047 -11.4359 0.28699 -0.191422 2.11712 0.081956 -0.191265 2.11713 0.0815134 -2.57686 -1.24485 -0.719547 -27.9297 7.4378 -12.9404 -53.3852 40.4642 10.4593 13.7005 2.47559 -25.8069 -5.13774 -0.459577 -0.344259 1.59028e-015 3.18055e-015 -3.18055e-015 8.82782e-032 3.18056e-015 -1.59028e-015 34.7202 8.86031 15.2537 57.092 36.888 -19.6385 0.539227 -26.7491 24.5953 11.4958 -0.652456 -16.4203 1.59028e-015 3.18055e-015 -3.18055e-015 7.95139e-016 0 -3.18055e-015 -0.663529 0.244098 -1.28584 
6.85458 95.5619 -8.23152 -0.0495733 -3.41324 4.27843 -0.0267435 1.07779 0.099779 6.17728 -6.00307 7.56292 -1.09971 14.4946 -2.47647 -3.25455 -5.34424 -0.640254 0.567957 -9.87201 0.208418 -7.15417 -2.59611 -1.44242 0.277293 14.24 1.4461 0.724667 -8.31789 -10.6994 -1.00335 -11.4359 0.28699 -0.1959 2.1554 0.199544 -0.195758 2.15539 0.199551 -2.56751 -1.41947 -0.832653 -27.7753 7.59572 -12.9912 -53.354 40.5333 10.264 13.5997 2.54523 -25.4844 -5.11291 -0.459579 -0.296898 1.59028e-015 -3.18055e-015 -3.18055e-015 -2.64834e-031 -3.18056e-015 -4.77083e-015 35.0121 9.20152 15.4328 55.7526 36.8315 -19.6866 0.203986 -25.6267 29.1346 9.74493 0.212508 -17.2988 -3.97569e-016 -3.18055e-015 -7.95139e-016 -3.97569e-016 0 -7.95139e-016 -0.565051 0.250465 -1.41542 
6.79368 95.5583 -8.26135 -0.120561 -3.44387 4.1533 -0.0241089 1.08431 0.151244 6.2853 -6.03175 7.45725 -1.12204 14.5773 -2.40646 -3.28774 -5.39618 -0.557933 0.570404 -9.86887 0.223105 -7.03753 -2.64122 -1.11904 0.337628 14.252 1.33098 0.65935 -8.28542 -10.8486 -1.00753 -11.4359 0.286507 -0.199945 2.18637 0.302749 -0.199803 2.18638 0.30275 -2.57347 -1.60161 -0.929121 -27.6762 7.74733 -12.9649 -52.7681 39.4181 9.5423 13.3604 3.72287 -25.2164 -5.13501 -0.436009 -0.516565 3.18055e-015 6.36111e-015 3.18055e-015 -5.29669e-031 6.36111e-015 4.77083e-015 34.9969 9.46581 15.5705 54.1016 36.022 -19.3694 -1.75583 -22.2076 34.0063 7.77063 0.908243 -16.5762 -6.62086e-032 9.54166e-015 3.97569e-016 -8.82782e-032 6.36111e-015 7.95139e-016 -0.50001 0.24186 -1.52102 
6.72718 95.5587 -8.30809 -0.172491 -3.41032 4.15842 -0.0217011 1.08155 0.169821 6.38703 -6.13179 7.40389 -1.14622 14.6303 -2.29538 -3.32573 -5.37739 -0.625967 0.57057 -9.86617 0.226405 -6.94131 -2.71195 -0.853146 0.414906 14.2489 1.23309 0.584256 -8.25333 -11.0635 -1.00988 -11.4359 0.281103 -0.199775 2.17838 0.343288 -0.199527 2.17837 0.339212 -2.63668 -1.71401 -0.959168 -27.5831 7.83787 -12.9142 -52.7829 40.4257 9.79475 13.4939 2.38125 -25.4841 -5.18661 -0.466412 -0.427992 7.95139e-015 -3.18055e-015 -3.18055e-015 7.95139e-015 -3.18056e-015 -1.59028e-015 34.8393 9.5956 15.6997 52.3146 34.0734 -18.9176 -5.24262 -18.7429 40.1356 6.71701 1.62753 -15.4776 -3.18055e-015 -9.54166e-015 -1.59028e-015 -1.59028e-015 -9.54167e-015 -0 -0.350817 0.318438 -1.59857 
6.65885 95.564 -8.34528 -0.25058 -3.35705 4.30299 -0.0172918 1.07714 0.170807 6.51402 -6.26227 7.46316 -1.14815 14.6842 -2.54846 -3.33098 -5.35455 -0.579203 0.569374 -9.86502 0.222746 -6.80054 -2.70556 -0.683089 0.447255 14.1441 1.09607 0.517072 -8.18627 -11.2555 -0.998757 -11.4251 0.26893 -0.18992 2.15437 0.339791 -0.189746 2.15437 0.339813 -2.78357 -1.7853 -0.978289 -27.4528 7.86524 -12.7805 -52.4579 40.2371 9.76564 13.5547 2.48117 -25.8681 -4.96139 -0.451743 -0.35085 3.18055e-015 3.18055e-015 -0 -0 0 3.18055e-015 34.7864 9.72465 15.9328 49.4975 29.3748 -18.1491 -11.503 -12.0279 47.8002 4.2189 2.87396 -13.977 -8.82781e-032 -3.18055e-015 -1.59028e-015 -3.18055e-015 -3.18056e-015 -1.59028e-015 -0.15547 0.426645 -1.70042 
6.58942 95.5608 -8.40488 -0.228239 -3.27598 4.51212 -0.0421195 1.05697 0.196598 6.55464 -6.40726 7.3764 -1.15875 14.6725 -2.5219 -3.35967 -5.259 -0.712173 0.564012 -9.87243 0.194328 -6.73947 -2.8009 -0.657706 0.459517 14.24 1.0605 0.470504 -8.23549 -11.4733 -1.01156 -11.414 0.246265 -0.239888 2.11228 0.392964 -0.239803 2.11228 0.393114 -2.79288 -1.76874 -1.10001 -27.3409 7.78352 -12.6993 -52.1641 40.0644 9.71755 13.6274 2.56622 -26.1602 -4.92704 -0.462996 -0.191777 1.59028e-015 6.36111e-015 1.59028e-015 1.59028e-015 9.54167e-015 -0 34.6938 9.7736 16.0716 46.2901 23.1793 -17.4072 -17.875 -6.76457 57.9991 -1.75257 5.16959 -12.0584 -9.54166e-015 6.36111e-015 3.18055e-015 -3.18055e-015 3.18056e-015 3.18055e-015 -0.0976424 0.435246 -1.8352 
6.63744 95.5682 -8.24496 0.0829372 -3.43925 4.77615 -0.111145 1.09899 0.225237 6.23405 -5.99026 7.90072 -0.908505 14.2251 -3.01422 -3.40971 -5.07597 -1.04213 0.558694 -9.87818 0.162974 -7.05336 -2.55902 -1.40276 0.432418 14.4342 1.46433 0.487853 -8.502 -11.3712 -1.0406 -11.4111 0.241528 -0.38065 2.19716 0.452932 -0.38065 2.19717 0.452931 -2.74912 -1.88186 -1.24727 -27.2356 7.81804 -12.5989 -51.8495 39.9321 9.46794 13.6232 2.69306 -26.2163 -5.09266 -0.376759 -0.662749 -1.59028e-015 -6.36111e-015 3.18055e-015 -3.18055e-015 -3.18056e-015 3.18055e-015 34.3403 9.90056 16.169 42.4104 14.1926 -15.8389 -23.9805 -1.65487 70.2002 -8.32004 6.09456 -9.51807 -3.18055e-015 7.95139e-016 -3.18055e-015 -3.18055e-015 -3.97569e-015 -3.18055e-015 -0.154536 0.507651 -1.94959 
6.55393 95.5679 -8.22666 -0.0100358 -3.80174 5.24818 -0.0871758 1.17695 0.204972 6.38478 -5.90772 7.88924 -0.824071 14.429 -3.32804 -3.45806 -5.10951 -1.20557 0.557068 -9.88492 0.151265 -6.83153 -2.07181 -1.68982 0.351145 14.232 1.58662 0.377604 -8.44221 -11.6058 -0.981353 -11.4084 0.208613 -0.325156 2.35329 0.413991 -0.324912 2.35329 0.413811 -2.92734 -1.94549 -1.31785 -27.1499 7.87444 -12.545 -51.3927 39.8478 9.28725 13.7033 2.78095 -26.0956 -5.14803 -0.406652 -0.902802 0 0 -0 -1.59028e-015 0 -0 33.9556 9.92843 16.3309 38.8333 4.0112 -13.3521 -31.2265 2.47268 82.7863 -14.8306 7.50905 -7.08798 -1.59028e-015 -2.18663e-015 7.95139e-016 1.79315e-032 -1.2921e-015 7.95139e-016 -0.024484 0.629903 -2.0971 
6.43048 95.5647 -8.58732 -0.188264 -3.30104 4.68773 -0.0931388 1.06879 0.389555 6.63503 -6.5446 7.03066 -1.17888 14.5862 -2.19717 -3.46519 -5.01037 -0.978472 0.552576 -9.89033 0.12155 -6.57133 -2.95485 0.0947738 0.656404 14.4208 0.90058 0.157144 -8.21648 -12.4007 -0.948449 -11.3995 0.144441 -0.326076 2.13648 0.779007 -0.326169 2.13646 0.779172 -2.75581 -1.80693 -1.4438 -27.3247 7.72136 -12.5854 -50.9792 39.9553 9.1553 13.7499 2.9913 -25.9454 -5.18317 -0.431594 -0.925721 1.59028e-015 -9.54166e-015 1.59028e-015 1.76556e-031 -6.36111e-015 1.59028e-015 33.3903 9.83207 16.6011 36.2297 -0.0185913 -9.90705 -36.511 0.169908 91.1606 -21.2408 8.61201 -5.46412 -2.75869e-032 -4.96962e-016 -3.18055e-015 -2.48282e-032 -8.94531e-016 -1.59028e-015 -0.125469 0.628935 -2.15203 
6.39421 95.5722 -8.61336 -0.0943754 -3.05316 5.10879 -0.135403 1.00427 0.399977 6.54006 -6.74753 7.90726 -0.842959 14.4401 -2.82176 -3.55658 -4.78885 -1.58714 0.537757 -9.91633 0.030667 -6.63409 -3.07618 0.0298091 0.760383 14.4819 0.796392 0.0753985 -8.29036 -12.6717 -0.949701 -11.3952 0.115441 -0.416951 2.00704 0.801932 -0.41721 2.00706 0.80169 -2.43297 -1.51468 -1.59977 -27.4977 7.43009 -12.7808 -50.8081 39.8015 9.14319 13.7127 3.08292 -25.829 -5.17049 -0.462833 -0.534504 -1.59028e-015 9.54166e-015 -0 1.76556e-031 6.36111e-015 -1.59028e-015 32.634 9.5767 16.8902 33.907 -2.56975 -4.71476 -40.5725 -3.04292 96.1984 -27.3142 10.2181 -5.01278 -3.18055e-015 0 3.18055e-015 -3.18055e-015 -5.56597e-015 3.18055e-015 -0.28207 0.592638 -2.18504 
